# xmcd CD database file
#
# Track frame offsets:
#	150
#	20336
#	35303
#	47789
#	66808
#	76129
#	92273
#	107001
#	125607
#	140050
#	160990
#	169829
#
# Disc length: 2485 seconds
#
# Revision: 0
# Processed by: cddbd v1.5.2PL0 Copyright (c) Steve Scherf et al.
# Submitted via: CDex 1.51
#
DISCID=9509b30c
DTITLE=Einat Betzalel - Sweeter Land
DYEAR=2008
DGENRE=Jazz
TTITLE0=Fields of freedom
TTITLE1=Money
TTITLE2=Peaple
TTITLE3=One World
TTITLE4=Daddy Please
TTITLE5=When Im Here With You
TTITLE6=Clare de Lune
TTITLE7=I would Like To show you
TTITLE8=Voices from the desert
TTITLE9=Change
TTITLE10=Ready to go
TTITLE11=Wonderland
EXTD=YEAR: 2008
EXTT0=
EXTT1=
EXTT2=
EXTT3=
EXTT4=
EXTT5=
EXTT6=
EXTT7=
EXTT8=
EXTT9=
EXTT10=
EXTT11=
PLAYORDER=
